<svg xmlns="http://www.w3.org/2000/svg" viewBox="0 0 1200 675" role="img" aria-labelledby="title desc">
<title id="title">From information to a scannable menu</title>
<desc id="desc">Teaching diagram for Module 4: Group related content before styling it.</desc>
<defs><marker id="arrowhead" markerWidth="10" markerHeight="7" refX="9" refY="3.5" orient="auto"><path d="M0 0L10 3.5L0 7Z" fill="#0d756b"/></marker><style>
text{font-family:Arial,Helvetica,sans-serif;fill:#102a35}.title{font-size:37px;font-weight:800;fill:#fff}.subtitle{font-size:20px;fill:#dffbf4}.label{font-size:22px;font-weight:800}.note{font-size:17px;fill:#334f59}.callout{font-size:16px;font-weight:700}.footer{font-size:15px;fill:#52656d}.centreText{font-size:22px;font-weight:800;fill:#fff}.centreNote{font-size:17px;fill:#dffbf4}.card{stroke:#9ebdb7;stroke-width:2}.c0{fill:#eef7f5}.c1{fill:#fff1eb}.c2{fill:#fff7d9}.c3{fill:#e9e2fb}.centre{fill:#0d756b;stroke:#07564f;stroke-width:3}.dot{stroke:#102a35;stroke-width:2}.d0{fill:#0d756b}.d1{fill:#ed6a4a}.d2{fill:#f2c14e}.d3{fill:#7a3df0}.arrow,.loop{fill:none;stroke:#0d756b;stroke-width:5;marker-end:url(#arrowhead)}.link{fill:none;stroke:#52656d;stroke-width:3}.versus{font-size:13px;font-weight:800;letter-spacing:1px;fill:#52656d}
</style></defs>
<rect width="1200" height="675" fill="#fffdf8"/><rect width="1200" height="125" fill="#0b3f4b"/>
<text x="60" y="58" class="title">From information to a scannable menu</text><text x="60" y="94" class="subtitle">Group related content before styling it.</text>
<rect x="410" y="155" width="380" height="105" rx="24" class="centre"/><text x="600" y="195" text-anchor="middle" class="centreText">MENU</text><text x="600" y="229" text-anchor="middle" class="centreNote">The whole information set</text><path d="M600 260 V315 M240 315 H960 M240 315 V355 M600 315 V355 M960 315 V355" class="link"/><rect x="65" y="355" width="350" height="165" rx="22" class="card c0"/><text x="240" y="400" text-anchor="middle" class="label">Categories</text><text x="240" y="434" text-anchor="middle" class="note">Meaningful groups such as mains or</text><text x="240" y="459" text-anchor="middle" class="note">drinks</text><rect x="425" y="355" width="350" height="165" rx="22" class="card c1"/><text x="600" y="400" text-anchor="middle" class="label">Items</text><text x="600" y="434" text-anchor="middle" class="note">Consistent product names within</text><text x="600" y="459" text-anchor="middle" class="note">each group</text><rect x="785" y="355" width="350" height="165" rx="22" class="card c2"/><text x="960" y="400" text-anchor="middle" class="label">Details</text><text x="960" y="434" text-anchor="middle" class="note">Description, price and honest</text><text x="960" y="459" text-anchor="middle" class="note">qualifiers</text>
<text x="60" y="642" class="footer">Fast Food Futures · Module 4 · Explanatory visual</text>
</svg>
